# xmcd CD database file
#
# Track frame offsets:
#	150
#	16650
#	31087
#	38075
#	62100
#	89437
#	107475
#	130450
#	147075
#	167400
#	194250
#	208025
#	230950
#	256300
#	265725
#	283725
#	293275
#	309775
#
# Disc length: 4377 seconds
#
# Revision: 3
# Processed by: cddbd v1.5.2PL0 Copyright (c) Steve Scherf et al.
# Submitted via: CDex 1.51
#
DISCID=f3111712
DTITLE=Various Artist - Hand In Hand
DYEAR=1995
DGENRE=Misc
TTITLE0=Fettes Brot - Schwarzbrot-Weißbrot
TTITLE1=TCA Microphone Mafia - Hand In Hand
TTITLE2=Die Fantastischen Vier - Hört Euch Den Hier An
TTITLE3=Mastino - Heimatfront
TTITLE4=Weep Not Child - Je Ka Bere
TTITLE5=Fresh Familee - Sexy Kanake
TTITLE6=Reality Brothers  - To Dwell Feat. Ganesha
TTITLE7=Natty U - Moving With The Kraut Feat. Ranting Chako
TTITLE8=Advanced Chemistry - Operation Artikel 3
TTITLE9=Das Auge Gottes - Allah Sei Mit Dir
TTITLE10=Anarchist Academy - Des Teufels Rechte Hand
TTITLE11=Boulevard Bou - Geh Zur Polizei
TTITLE12=Krombacher MC - Fuck The Skins
TTITLE13=Coincidence - Mir Lebn Ejbig
TTITLE14=Die Fremden - Flammendes Herz
TTITLE15=Warnstreik - Lange Her
TTITLE16=Kalashnikow - Alles Wird Gut
TTITLE17=Slime - Der Tod Ist Ein Meister Aus Deutschland
EXTD=YEAR: 1995
EXTT0=
EXTT1=
EXTT2=
EXTT3=
EXTT4=
EXTT5=
EXTT6=
EXTT7=
EXTT8=
EXTT9=
EXTT10=
EXTT11=
EXTT12=
EXTT13=
EXTT14=
EXTT15=
EXTT16=
EXTT17=
PLAYORDER=
